<?xml version="1.0" encoding="UTF-8"?>
<!-- Generator: Adobe Illustrator 16.0.0, SVG Export Plug-In . SVG Version: 6.00 Build 0)  -->
<!DOCTYPE svg PUBLIC "-//W3C//DTD SVG 1.1//EN" "http://www.w3.org/Graphics/SVG/1.1/DTD/svg11.dtd">
<svg version="1.1" id="Layer_1" xmlns="http://www.w3.org/2000/svg" xmlns:xlink="http://www.w3.org/1999/xlink" x="0px" y="0px" width="81px" height="69.392px" viewBox="0 0 81 69.392" enable-background="new 0 0 81 69.392" xml:space="preserve">
<g>
	<rect fill="#E6332A" width="81.062" height="65.449"/>
	<g>
		<g>
			<path fill="#FFDE00" d="M19.985,12.911h4.239v41.168h1.816v4.239h-6.056V38.401l-5.75-5.753v25.671H9.996v-41.17H8.18v-4.237     h6.055v13.742l5.75,5.753V12.911z"/>
			<path fill="#FFDE00" d="M38.937,20.176h4.238v30.21l3.753,3.693h1.877V12.911h4.238v41.168h1.816v4.239h-9.688l-4.116-4.116     l-4.118,4.116h-7.871v-41.17h-1.816v-4.237h6.055v41.168h1.876l3.754-3.693V20.176z"/>
			<path fill="#FFDE00" d="M65.759,58.318h-7.871v-41.17h-1.816v-4.237h16.046v39.05L65.759,58.318z M62.127,54.079h1.876     l3.875-3.812V17.148h-5.751V54.079z"/>
		</g>
		
			<rect x="1.951" y="2.078" fill="none" stroke="#FFDE00" stroke-width="3.9569" stroke-miterlimit="10" width="77.16" height="65.288"/>
	</g>
</g>
</svg>